<?xml version="1.0" encoding="UTF-8" standalone="no"?>
<!DOCTYPE svg PUBLIC "-//W3C//DTD SVG 1.0//EN" "http://www.w3.org/TR/2001/PR-SVG-20010719/DTD/svg10.dtd">
<svg width="71cm" height="22cm" viewBox="74 113 1420 435" xmlns="http://www.w3.org/2000/svg" xmlns:xlink="http://www.w3.org/1999/xlink">
  <g>
    <rect style="fill: #ffffff" x="75" y="215" width="1417" height="231"/>
    <rect style="fill: none; fill-opacity:0; stroke-width: 2; stroke: #000000" x="75" y="215" width="1417" height="231"/>
    <rect style="fill: #ffffff" x="75" y="195" width="134.9" height="20"/>
    <rect style="fill: none; fill-opacity:0; stroke-width: 2; stroke: #000000" x="75" y="195" width="134.9" height="20"/>
    <text font-size="12.7998" style="fill: #000000;text-anchor:start;font-family:monospace;font-style:normal;font-weight:normal" x="77" y="209">javax.swing.table</text>
  </g>
  <g>
    <rect style="fill: #ffffff" x="1048" y="258" width="387.3" height="44"/>
    <rect style="fill: none; fill-opacity:0; stroke-width: 2; stroke: #000000" x="1048" y="258" width="387.3" height="44"/>
    <text font-size="12.8" style="fill: #000000;text-anchor:middle;font-family:monospace;font-style:normal;font-weight:normal" x="1241.65" y="273.2">&lt;&lt;Interface&gt;&gt;</text>
    <text font-size="16" style="fill: #000000;text-anchor:middle;font-family:sans-serif;font-style:normal;font-weight:700" x="1241.65" y="294">TableModel</text>
    <rect style="fill: #ffffff" x="1048" y="302" width="387.3" height="8"/>
    <rect style="fill: none; fill-opacity:0; stroke-width: 2; stroke: #000000" x="1048" y="302" width="387.3" height="8"/>
    <rect style="fill: #ffffff" x="1048" y="310" width="387.3" height="100"/>
    <rect style="fill: none; fill-opacity:0; stroke-width: 2; stroke: #000000" x="1048" y="310" width="387.3" height="100"/>
    <text font-size="12.8" style="fill: #000000;text-anchor:start;font-family:monospace;font-style:normal;font-weight:normal" x="1051" y="323.2">+getColumnCount(): int</text>
    <text font-size="12.8" style="fill: #000000;text-anchor:start;font-family:monospace;font-style:normal;font-weight:normal" x="1051" y="339.2">+getRowCount(): int</text>
    <text font-size="12.8" style="fill: #000000;text-anchor:start;font-family:monospace;font-style:normal;font-weight:normal" x="1051" y="355.2">+getValueAt(rowIndex:int,columnIndex:int): Object</text>
    <text font-size="12.8" style="fill: #000000;text-anchor:start;font-family:monospace;font-style:normal;font-weight:normal" x="1051" y="371.2">+getColumnClass(column:int)</text>
    <text font-size="12.8" style="fill: #000000;text-anchor:start;font-family:monospace;font-style:normal;font-weight:normal" x="1051" y="387.2">+getColumnName(column:int)</text>
    <text font-size="12.8" style="fill: #000000;text-anchor:start;font-family:monospace;font-style:normal;font-weight:normal" x="1051" y="403.2">+...()</text>
  </g>
  <g>
    <rect style="fill: #ffffff" x="629" y="261" width="256.4" height="44"/>
    <rect style="fill: none; fill-opacity:0; stroke-width: 2; stroke: #000000" x="629" y="261" width="256.4" height="44"/>
    <text font-size="12.8" style="fill: #000000;text-anchor:middle;font-family:monospace;font-style:normal;font-weight:normal" x="757.2" y="276.2">&lt;&lt;Abstract&gt;&gt;</text>
    <text font-size="16" style="fill: #000000;text-anchor:middle;font-family:sans-serif;font-style:normal;font-weight:normal" x="757.2" y="297">AbstractTableModel</text>
    <rect style="fill: #ffffff" x="629" y="305" width="256.4" height="8"/>
    <rect style="fill: none; fill-opacity:0; stroke-width: 2; stroke: #000000" x="629" y="305" width="256.4" height="8"/>
    <rect style="fill: #ffffff" x="629" y="313" width="256.4" height="52"/>
    <rect style="fill: none; fill-opacity:0; stroke-width: 2; stroke: #000000" x="629" y="313" width="256.4" height="52"/>
    <text font-size="12.8" style="fill: #000000;text-anchor:start;font-family:monospace;font-style:normal;font-weight:normal" x="632" y="326.2">+getColumnName(columnIndex:int)</text>
    <text font-size="12.8" style="fill: #000000;text-anchor:start;font-family:monospace;font-style:normal;font-weight:normal" x="632" y="342.2">+getColumnClass(columnIndex:int)</text>
    <text font-size="12.8" style="fill: #000000;text-anchor:start;font-family:monospace;font-style:normal;font-weight:normal" x="632" y="358.2">+...()</text>
  </g>
  <g>
    <polyline style="fill: none; fill-opacity:0; stroke-width: 2; stroke-dasharray: 8; stroke: #000000" points="1029.76,336 959.204,336 959.204,313 886.408,313 "/>
    <polygon style="fill: #ffffff" points="1029.76,344 1045.76,336 1029.76,328 "/>
    <polygon style="fill: none; fill-opacity:0; stroke-width: 2; stroke: #000000" points="1029.76,344 1045.76,336 1029.76,328 "/>
  </g>
  <g>
    <rect style="fill: #ffffff" x="726" y="114" width="62.8" height="28"/>
    <rect style="fill: none; fill-opacity:0; stroke-width: 2; stroke: #000000" x="726" y="114" width="62.8" height="28"/>
    <text font-size="16" style="fill: #000000;text-anchor:middle;font-family:sans-serif;font-style:normal;font-weight:700" x="757.4" y="134">Object</text>
    <rect style="fill: #ffffff" x="726" y="142" width="62.8" height="8"/>
    <rect style="fill: none; fill-opacity:0; stroke-width: 2; stroke: #000000" x="726" y="142" width="62.8" height="8"/>
    <rect style="fill: #ffffff" x="726" y="150" width="62.8" height="8"/>
    <rect style="fill: none; fill-opacity:0; stroke-width: 2; stroke: #000000" x="726" y="150" width="62.8" height="8"/>
  </g>
  <g>
    <polyline style="fill: none; fill-opacity:0; stroke-width: 2; stroke: #000000" points="757.4,176.236 757.4,217.5 757.2,217.5 757.2,261 "/>
    <polygon style="fill: #ffffff" points="765.4,176.236 757.4,160.236 749.4,176.236 "/>
    <polygon style="fill: none; fill-opacity:0; stroke-width: 2; stroke: #000000" points="765.4,176.236 757.4,160.236 749.4,176.236 "/>
  </g>
  <g>
    <rect style="fill: #ffffff" x="822" y="114" width="110.1" height="44"/>
    <rect style="fill: none; fill-opacity:0; stroke-width: 2; stroke: #000000" x="822" y="114" width="110.1" height="44"/>
    <text font-size="12.8" style="fill: #000000;text-anchor:middle;font-family:monospace;font-style:normal;font-weight:normal" x="877.05" y="129.2">&lt;&lt;Interface&gt;&gt;</text>
    <text font-size="16" style="fill: #000000;text-anchor:middle;font-family:sans-serif;font-style:normal;font-weight:700" x="877.05" y="150">Serializable</text>
    <rect style="fill: #ffffff" x="822" y="158" width="110.1" height="8"/>
    <rect style="fill: none; fill-opacity:0; stroke-width: 2; stroke: #000000" x="822" y="158" width="110.1" height="8"/>
    <rect style="fill: #ffffff" x="822" y="166" width="110.1" height="8"/>
    <rect style="fill: none; fill-opacity:0; stroke-width: 2; stroke: #000000" x="822" y="166" width="110.1" height="8"/>
  </g>
  <g>
    <polyline style="fill: none; fill-opacity:0; stroke-width: 2; stroke-dasharray: 8; stroke: #000000" points="877.05,192.236 877.05,225.5 757.2,225.5 757.2,261 "/>
    <polygon style="fill: #ffffff" points="885.05,192.236 877.05,176.236 869.05,192.236 "/>
    <polygon style="fill: none; fill-opacity:0; stroke-width: 2; stroke: #000000" points="885.05,192.236 877.05,176.236 869.05,192.236 "/>
  </g>
  <g>
    <rect style="fill: #ffffff" x="124" y="265" width="387.3" height="28"/>
    <rect style="fill: none; fill-opacity:0; stroke-width: 2; stroke: #000000" x="124" y="265" width="387.3" height="28"/>
    <text font-size="16" style="fill: #000000;text-anchor:middle;font-family:sans-serif;font-style:normal;font-weight:700" x="317.65" y="285">DefaultTableModel</text>
    <rect style="fill: #ffffff" x="124" y="293" width="387.3" height="36"/>
    <rect style="fill: none; fill-opacity:0; stroke-width: 2; stroke: #000000" x="124" y="293" width="387.3" height="36"/>
    <text font-size="12.8" style="fill: #000000;text-anchor:start;font-family:monospace;font-style:normal;font-weight:normal" x="127" y="306.2">+columnIdentifiers: Vector</text>
    <text font-size="12.8" style="fill: #000000;text-anchor:start;font-family:monospace;font-style:normal;font-weight:normal" x="127" y="322.2">+dataVector: Vector of Vectors of Object values</text>
    <rect style="fill: #ffffff" x="124" y="329" width="387.3" height="52"/>
    <rect style="fill: none; fill-opacity:0; stroke-width: 2; stroke: #000000" x="124" y="329" width="387.3" height="52"/>
    <text font-size="12.8" style="fill: #000000;text-anchor:start;font-family:monospace;font-style:normal;font-weight:normal" x="127" y="342.2">+getColumnCount(): int</text>
    <text font-size="12.8" style="fill: #000000;text-anchor:start;font-family:monospace;font-style:normal;font-weight:normal" x="127" y="358.2">+getRowCount(): int</text>
    <text font-size="12.8" style="fill: #000000;text-anchor:start;font-family:monospace;font-style:normal;font-weight:normal" x="127" y="374.2">+getValueAt(columnIndex:int,rowIndex:int): Object</text>
  </g>
  <g>
    <polyline style="fill: none; fill-opacity:0; stroke-width: 2; stroke: #000000" points="610.764,323 612,323 513.306,323 512.306,323 "/>
    <polygon style="fill: #ffffff" points="610.764,331 626.764,323 610.764,315 "/>
    <polygon style="fill: none; fill-opacity:0; stroke-width: 2; stroke: #000000" points="610.764,331 626.764,323 610.764,315 "/>
  </g>
  <g>
    <rect style="fill: #ffffff" x="718" y="502" width="172.3" height="28"/>
    <rect style="fill: none; fill-opacity:0; stroke-width: 2; stroke: #000000" x="718" y="502" width="172.3" height="28"/>
    <text font-size="16" style="fill: #000000;text-anchor:middle;font-family:sans-serif;font-style:normal;font-weight:700" x="804.15" y="522">HerrienTableModela</text>
    <rect style="fill: #ffffff" x="718" y="530" width="172.3" height="8"/>
    <rect style="fill: none; fill-opacity:0; stroke-width: 2; stroke: #000000" x="718" y="530" width="172.3" height="8"/>
    <rect style="fill: #ffffff" x="718" y="538" width="172.3" height="8"/>
    <rect style="fill: none; fill-opacity:0; stroke-width: 2; stroke: #000000" x="718" y="538" width="172.3" height="8"/>
  </g>
  <text font-size="12.7998" style="fill: #000000;text-anchor:start;font-family:sans-serif;font-style:normal;font-weight:normal" x="266" y="108">
    <tspan x="266" y="108"></tspan>
  </text>
</svg>
